<svg xmlns="http://www.w3.org/2000/svg" viewBox="0 0 1850 269" width="1850" height="269" role="img" aria-label="CardPulse wordmark">
  <title>CardPulse</title>
  <desc>CardPulse horizontal wordmark — prism mark with outlined Space Grotesk Bold wordmark.</desc>
  <path d="M 191.500 20.000 L 305.833 191.750 L 191.500 249.000 L 77.167 191.750 Z" fill="#4B5EFC"/>
  <path d="M 191.500 20.000 L 305.833 191.750 L 191.500 134.500 Z" fill="#A5B0FF"/>
  <g fill="#FFFFFF">
    <g transform="translate(447.000 230.500) scale(0.285714 -0.285714)"><path d="M332 -14Q202 -14 126.0 58.5Q50 131 50 266V434Q50 569 126.0 641.5Q202 714 332 714Q461 714 531.5 643.5Q602 573 602 450V444H472V454Q472 516 437.5 556.0Q403 596 332 596Q262 596 222.0 553.0Q182 510 182 436V264Q182 191 222.0 147.5Q262 104 332 104Q403 104 437.5 144.5Q472 185 472 246V264H602V250Q602 127 531.5 56.5Q461 -14 332 -14Z"/></g>
    <g transform="translate(631.000 230.500) scale(0.285714 -0.285714)"><path d="M224 -14Q171 -14 129.0 4.5Q87 23 62.5 58.5Q38 94 38 145Q38 196 62.5 230.5Q87 265 130.5 282.5Q174 300 230 300H366V328Q366 363 344.0 385.5Q322 408 274 408Q227 408 204.0 386.5Q181 365 174 331L58 370Q70 408 96.5 439.5Q123 471 167.5 490.5Q212 510 276 510Q374 510 431.0 461.0Q488 412 488 319V134Q488 104 516 104H556V0H472Q435 0 411.0 18.0Q387 36 387 66V67H368Q364 55 350.0 35.5Q336 16 306.0 1.0Q276 -14 224 -14ZM246 88Q299 88 332.5 117.5Q366 147 366 196V206H239Q204 206 184.0 191.0Q164 176 164 149Q164 122 185.0 105.0Q206 88 246 88Z"/></g>
    <g transform="translate(796.143 230.500) scale(0.285714 -0.285714)"><path d="M70 0V496H194V440H212Q223 470 248.5 484.0Q274 498 308 498H368V386H306Q258 386 227.0 360.5Q196 335 196 282V0Z"/></g>
    <g transform="translate(909.286 230.500) scale(0.285714 -0.285714)"><path d="M270 -14Q211 -14 159.5 15.5Q108 45 77.0 102.0Q46 159 46 240V256Q46 337 77.0 394.0Q108 451 159.0 480.5Q210 510 270 510Q315 510 345.5 499.5Q376 489 395.0 473.0Q414 457 424 439H442V700H568V0H444V60H426Q409 32 373.5 9.0Q338 -14 270 -14ZM308 96Q366 96 405.0 133.5Q444 171 444 243V253Q444 325 405.5 362.5Q367 400 308 400Q250 400 211.0 362.5Q172 325 172 253V243Q172 171 211.0 133.5Q250 96 308 96Z"/></g>
    <g transform="translate(1091.571 230.500) scale(0.285714 -0.285714)"><path d="M66 0V700H354Q420 700 470.5 673.5Q521 647 549.5 599.0Q578 551 578 485V471Q578 406 548.5 357.5Q519 309 468.5 282.5Q418 256 354 256H198V0ZM198 376H341Q388 376 417.0 402.0Q446 428 446 473V483Q446 528 417.0 554.0Q388 580 341 580H198Z"/></g>
    <g transform="translate(1264.143 230.500) scale(0.285714 -0.285714)"><path d="M259 -8Q201 -8 157.5 18.5Q114 45 90.0 92.0Q66 139 66 200V496H192V210Q192 154 219.5 126.0Q247 98 298 98Q356 98 388.0 136.5Q420 175 420 244V496H546V0H422V65H404Q392 40 359.0 16.0Q326 -8 259 -8Z"/></g>
    <g transform="translate(1440.143 230.500) scale(0.285714 -0.285714)"><path d="M70 0V700H196V0Z"/></g>
    <g transform="translate(1516.143 230.500) scale(0.285714 -0.285714)"><path d="M276 -14Q179 -14 117.0 28.0Q55 70 42 148L158 178Q165 143 181.5 123.0Q198 103 222.5 94.5Q247 86 276 86Q320 86 341.0 101.5Q362 117 362 140Q362 163 342.0 175.5Q322 188 278 196L250 201Q198 211 155.0 228.5Q112 246 86.0 277.0Q60 308 60 357Q60 431 114.0 470.5Q168 510 256 510Q339 510 394.0 473.0Q449 436 466 376L349 340Q341 378 316.5 394.0Q292 410 256 410Q220 410 201.0 397.5Q182 385 182 363Q182 339 202.0 327.5Q222 316 256 310L284 305Q340 295 385.5 278.5Q431 262 457.5 231.5Q484 201 484 149Q484 71 427.5 28.5Q371 -14 276 -14Z"/></g>
    <g transform="translate(1665.857 230.500) scale(0.285714 -0.285714)"><path d="M296 -14Q222 -14 165.5 17.5Q109 49 77.5 106.5Q46 164 46 242V254Q46 332 77.0 389.5Q108 447 164.0 478.5Q220 510 294 510Q367 510 421.0 477.5Q475 445 505.0 387.5Q535 330 535 254V211H174Q176 160 212.0 128.0Q248 96 300 96Q353 96 378.0 119.0Q403 142 416 170L519 116Q505 90 478.5 59.5Q452 29 408.0 7.5Q364 -14 296 -14ZM175 305H407Q403 348 372.5 374.0Q342 400 293 400Q242 400 212.0 374.0Q182 348 175 305Z"/></g>
  </g>
</svg>
