<?xml version="1.0" encoding="utf-8"?>
<!-- Generator: Adobe Illustrator 21.0.0, SVG Export Plug-In . SVG Version: 6.00 Build 0)  -->
<svg version="1.1" id="Layer_1" xmlns="http://www.w3.org/2000/svg" xmlns:xlink="http://www.w3.org/1999/xlink" x="0px" y="0px"
	 viewBox="0 0 400.3 117.2" style="enable-background:new 0 0 400.3 117.2;" xml:space="preserve">
<style type="text/css">
	.st0{fill:#333333;}
	.st1{fill:#F15B28;}
</style>
<path class="st0" d="M30.4,95H0V22.2h29.2c14.2,0,22.5,8,22.5,20.4c0,8.1-5.3,13.3-9,15c4.4,2,10,6.6,10,16.3
	C52.7,87.6,43.4,95,30.4,95z M28.1,34.9H14.2v16.8h13.9c6,0,9.4-3.4,9.4-8.4C37.5,38.3,34.1,34.9,28.1,34.9z M29,64.4H14.2v17.9H29
	c6.4,0,9.5-4.1,9.5-9C38.5,68.4,35.4,64.4,29,64.4z"/>
<path class="st0" d="M103.3,95L89.1,66H78.9v29H64.7V22.2h28.5c14.8,0,23.6,10.1,23.6,22.3c0,10.2-6.2,16.5-13.3,19.1L119.7,95
	H103.3z M92.2,34.9H78.9v19.2h13.4c6.2,0,10.3-4,10.3-9.6C102.6,38.9,98.5,34.9,92.2,34.9z"/>
<path class="st1" d="M128.9,117.2V0h14.2v117.2H128.9z"/>
<path class="st0" d="M203,88c-4.8,4.8-11.6,6.9-19.2,6.9h-26.3V22.2h26.3c7.6,0,14.4,2.1,19.2,6.9c8.2,8.2,7.4,18.2,7.4,29.1
	C210.3,69.2,211.2,79.9,203,88z M193.1,39.4c-2.5-3-5.7-4.5-10.6-4.5h-10.7v47.4h10.7c4.9,0,8.2-1.5,10.6-4.5
	c2.7-3.3,3.1-8.5,3.1-19.5C196.1,47.3,195.7,42.7,193.1,39.4z"/>
<path class="st0" d="M267.1,87.3c-5.8,6-12.8,8.3-20.5,8.3c-8,0-14.5-2.9-19.6-8c-7.4-7.4-7.2-16.4-7.2-29c0-12.6-0.2-21.7,7.2-29
	c5.1-5.1,11.4-8,19.6-8c16.9,0,25.4,11,27.4,23.3h-14.3c-1.6-6.8-5.8-10.6-13.1-10.6c-3.9,0-7,1.5-9.1,3.9
	c-2.8,3.1-3.5,6.4-3.5,20.4c0,14,0.7,17.5,3.5,20.5c2,2.3,5.2,3.8,9.1,3.8c4.3,0,7.8-1.5,10.1-4.1c2.3-2.7,3.3-5.9,3.3-9.7v-2.8
	h-13.4V54.5h27.5v10.6C274.1,75.7,272.2,82,267.1,87.3z"/>
<path class="st0" d="M285.9,95V22.2h47.9v12.7h-33.7V52h28.7v12.7h-28.7v17.7h33.7V95H285.9z"/>
<path class="st0" d="M383.8,95l-14.2-29h-10.2v29h-14.2V22.2h28.5c14.8,0,23.6,10.1,23.6,22.3c0,10.2-6.2,16.5-13.3,19.1L400.3,95
	H383.8z M372.8,34.9h-13.4v19.2h13.4c6.2,0,10.3-4,10.3-9.6C383.1,38.9,379,34.9,372.8,34.9z"/>
</svg>
